<?xml version="1.0" encoding="utf-8"?>
<?xml-stylesheet type="text/xsl" href="rss1.xsl"?>
<rss version="2.0" xmlns:atom="http://www.w3.org/2005/Atom" xmlns:content="http://purl.org/rss/1.0/modules/content/" xmlns:dc="http://purl.org/dc/elements/1.1/" xmlns:media="http://search.yahoo.com/mrss/">
<channel>
 <title>Getty</title>
 <link>http://www.gettyimg.com/</link>
 <atom:link href="http://www.gettyimg.com/" rel="self" type="application/rss+xml" />

 
                <item>
                <title><![CDATA[【HD Live Performances】WEB-RiP - Die Giovanni Zarrella Show E07 [22.04.23] ZDF HD IPTV H264 1080p]]></title>
                <link><![CDATA[https://sharemania.us/threads/die-giovanni-zarrella-show-e07-22-04-23-zdf-hd-iptv-h264-1080p.219760/]]></link>
                <description><![CDATA[<article>
<blockquote class="messageText SelectQuoteContainer ugc baseHtml">
<img src="https://i.imgur.com/ien8zzH.jpg" class="bbCodeImage LbImage" alt="[​IMG]" data-url="https://i.imgur.com/ien8zzH.jpg" style=""><br>
<br>
Artists:<br>
Ben Zucker, Wolkenfrei, Eloy de Jong, Wincent Weiss, Santiano, Marie Reim, The BossHoss &amp; Ilse DeLange, Sonia Liebing, Marc Martel, Oli.P, Howard Carpendale, Marco Mengoni, Nino de Angelo &amp; Sotiria, Adel Tawil, Leony, Nadja Benaissa, Mike Leon Grosch, Die Prinzen, Maite Kelly<br>
<br>
<div class="bbCodeBlock bbCodeCode">
<div class="type">Code:</div>
<pre>General
Complete name                            : Die Giovanni Zarrella Show E07 - ZDF HD 1080p.mkv
Format                                   : Matroska
Format version                           : Version 4
File size                                : 10.0 GiB
Duration                                 : 3 h 3 min
Overall bit rate                         : 7 807 kb/s
Encoded date                             : UTC 2023-04-26 03:24:11
Writing application                      : mkvmerge v55.0.0 ('Waiting For Space') 64-bit
Writing library                          : libebml v1.4.2 + libmatroska v1.6.4
Video
ID                                       : 1
Format                                   : AVC
Format/Info                              : Advanced Video Codec
Format profile                           : Main@L4.2
Format settings                          : CABAC / 2 Ref Frames
Format settings, CABAC                   : Yes
Format settings, Reference frames        : 2 frames
Codec ID                                 : V_MPEG4/ISO/AVC
Duration                                 : 3 h 3 min
Bit rate                                 : 7 550 kb/s
Width                                    : 1 920 pixels
Height                                   : 1 080 pixels
Display aspect ratio                     : 16:9
Frame rate mode                          : Constant
Frame rate                               : 50.000 FPS
Color space                              : YUV
Chroma subsampling                       : 4:2:0
Bit depth                                : 8 bits
Scan type                                : Progressive
Bits/(Pixel*Frame)                       : 0.073
Stream size                              : 9.69 GiB (97%)
Language                                 : German
Default                                  : Yes
Forced                                   : No
Audio
ID                                       : 2
Format                                   : E-AC-3
Format/Info                              : Enhanced AC-3
Commercial name                          : Dolby Digital Plus
Codec ID                                 : A_EAC3
Duration                                 : 3 h 3 min
Bit rate mode                            : Constant
Bit rate                                 : 256 kb/s
Channel(s)                               : 6 channels
Channel layout                           : L R C LFE Ls Rs
Sampling rate                            : 48.0 kHz
Frame rate                               : 31.250 FPS (1536 SPF)
Compression mode                         : Lossy
Stream size                              : 336 MiB (3%)
Language                                 : German
Service kind                             : Complete Main
Default                                  : Yes
Forced                                   : No
Text
ID                                       : 3
Format                                   : UTF-8
Codec ID                                 : S_TEXT/UTF8
Codec ID/Info                            : UTF-8 Plain Text
Duration                                 : 3 h 3 min
Bit rate                                 : 58 b/s
Count of elements                        : 2103
Stream size                              : 78.5 KiB (0%)
Language                                 : German
Default                                  : Yes
Forced                                   : No

</pre>
</div>Bayfiles.<br>
<div class="bbCodeBlock bbCodeVfcHH HiddenContent">
<div class="attribution type">Hidden Content:</div>
<blockquote>You must reply before you can see the hidden data contained here.</blockquote>
</div>
<div class="messageTextEndMarker">&nbsp;</div>
</blockquote>
</article>]]></description>
                <author><![CDATA[LLAVE1]]></author>
                </item>

                </channel></rss>